<svg width="16" height="15" viewBox="0 0 16 15" fill="none" xmlns="http://www.w3.org/2000/svg">
<path d="M0.23969 8.00983L8.45244 14.9178C8.51548 14.9705 8.59591 15 8.68069 15L10.6045 15C10.7654 15 10.8393 14.8062 10.7176 14.7051L3.10481 8.30056L15.8261 8.30056C15.9217 8.30056 16 8.22472 16 8.13202L16 6.86798C16 6.77528 15.9217 6.69944 15.8261 6.69944L3.10698 6.69944L10.7198 0.294943C10.8415 0.191713 10.7676 -8.59764e-07 10.6067 -8.73827e-07L8.61765 -1.04772e-06C8.57635 -1.05133e-06 8.53505 0.0147461 8.50462 0.0421338L0.23969 6.99017C0.164435 7.05359 0.104095 7.13192 0.062746 7.21987C0.0213967 7.30782 4.93351e-08 7.40335 4.08856e-08 7.5C3.24361e-08 7.59665 0.0213967 7.69217 0.0627459 7.78013C0.104095 7.86808 0.164435 7.94641 0.23969 8.00983Z" fill="#8C8C8C"/>
</svg>
