<svg width="16" height="15" viewBox="0 0 16 15" fill="none" xmlns="http://www.w3.org/2000/svg">
<path d="M15.7603 6.99017L7.54756 0.0821628C7.48452 0.0294943 7.40409 0 7.31931 0L5.39546 0C5.2346 0 5.16069 0.19382 5.28242 0.294944L12.8952 6.69944L0.173907 6.69944C0.0782581 6.69944 0 6.77528 0 6.86798L0 8.13202C0 8.22472 0.0782581 8.30056 0.173907 8.30056L12.893 8.30056L5.28025 14.7051C5.15851 14.8083 5.23242 15 5.39329 15L7.38235 15C7.42365 15 7.46495 14.9853 7.49539 14.9579L15.7603 8.00983C15.8356 7.94641 15.8959 7.86808 15.9373 7.78013C15.9786 7.69218 16 7.59665 16 7.5C16 7.40335 15.9786 7.30782 15.9373 7.21987C15.8959 7.13192 15.8356 7.05359 15.7603 6.99017Z" fill="#E3E3E3"/>
</svg>
