<svg width="16" height="16" viewBox="0 0 16 16" fill="none" xmlns="http://www.w3.org/2000/svg">
<path d="M15.7464 2.23429L14.646 3.07429C13.1457 1.2019 10.8123 0 8.19218 0C3.66785 0 0.00585993 3.57143 6.9914e-06 7.99048C-0.00584595 12.4133 3.66395 16 8.19218 16C11.7293 16 14.7436 13.8095 15.8907 10.741C15.92 10.661 15.8771 10.5714 15.7951 10.5448L14.6889 10.1733C14.6504 10.1604 14.6082 10.1628 14.5713 10.1799C14.5345 10.1969 14.506 10.2274 14.4919 10.2648C14.4568 10.36 14.4178 10.4552 14.3768 10.5486C14.0393 11.3295 13.5554 12.0305 12.9389 12.6324C12.3274 13.2306 11.6033 13.7079 10.8065 14.0381C9.98123 14.379 9.10133 14.5524 8.19608 14.5524C7.28887 14.5524 6.41093 14.379 5.58566 14.0381C4.78806 13.7092 4.06374 13.2318 3.45324 12.6324C2.84005 12.0354 2.35169 11.3277 2.01537 10.5486C1.66614 9.74095 1.48861 8.88381 1.48861 7.9981C1.48861 7.11238 1.66614 6.25524 2.01537 5.44762C2.35289 4.66667 2.83673 3.96571 3.45324 3.36381C4.06975 2.7619 4.78771 2.28952 5.58566 1.9581C6.41093 1.61714 7.29082 1.44381 8.19608 1.44381C9.10328 1.44381 9.98123 1.61714 10.8065 1.9581C11.6041 2.28694 12.3284 2.76442 12.9389 3.36381C13.1321 3.55238 13.3135 3.75238 13.4813 3.9619L12.3068 4.85714C12.2836 4.87469 12.2659 4.89829 12.2558 4.92522C12.2456 4.95215 12.2435 4.98133 12.2496 5.00938C12.2557 5.03744 12.2698 5.06324 12.2903 5.08382C12.3108 5.1044 12.3368 5.11892 12.3653 5.12571L15.7912 5.94476C15.8888 5.96762 15.9844 5.89524 15.9844 5.7981L16 2.35238C15.998 2.22667 15.8478 2.15619 15.7464 2.23429Z" fill="#E3E3E3"/>
</svg>
